control3min_grf.mot
version=1
nRows=15
nColumns 19
inDegrees=yes
endheader
time	1_ground_force_vx	1_ground_force_vy	1_ground_force_vz	1_ground_force_px	1_ground_force_py	1_ground_force_pz	1_ground_torque_x	1_ground_torque_y	1_ground_torque_z	2_ground_force_vx	2_ground_force_vy	2_ground_force_vz	2_ground_force_px	2_ground_force_py	2_ground_force_pz	2_ground_torque_x	2_ground_torque_y	2_ground_torque_z
            3.751500	           -7.110082	          780.965799	          -51.800013	           -0.139041	            0.006232	           -0.403395	           -0.012486	            1.371451	           -0.090966	          -27.664209	          779.731203	           67.648521	           -0.136647	            0.006026	           -0.707604	           -0.012016	            0.338675	            0.029383
            3.752000	           -7.434235	          788.179706	          -52.547845	           -0.139197	            0.006231	           -0.403220	           -0.008748	            0.927487	           -0.061835	          -27.875870	          786.541359	           68.423762	           -0.136566	            0.006026	           -0.707623	           -0.012541	            0.353853	            0.030783
            3.752500	           -7.986378	          793.048831	          -52.984169	           -0.139296	            0.006232	           -0.403374	           -0.005336	            0.529829	           -0.035398	          -27.813058	          795.193770	           69.252389	           -0.136801	            0.006026	           -0.708002	           -0.012104	            0.346061	            0.030138
            3.753000	           -8.034577	          799.720526	          -53.414015	           -0.139415	            0.006232	           -0.403362	           -0.006469	            0.643923	           -0.043008	          -27.837984	          802.188683	           70.028207	           -0.136881	            0.006026	           -0.707880	           -0.011791	            0.339767	            0.029660
            3.753500	           -8.220173	          805.671255	          -53.846611	           -0.139455	            0.006231	           -0.403276	           -0.010412	            1.020466	           -0.068202	          -27.530143	          807.894517	           71.174711	           -0.136887	            0.006026	           -0.707866	           -0.014473	            0.424710	            0.037417
            3.754000	           -8.085779	          811.623618	          -54.646851	           -0.139474	            0.006230	           -0.403072	           -0.014321	            1.437486	           -0.096786	          -27.606409	          816.176967	           72.330573	           -0.136967	            0.006026	           -0.708043	           -0.018182	            0.537535	            0.047637
            3.754500	           -7.950001	          816.852756	          -54.945771	           -0.139379	            0.006231	           -0.403111	           -0.016358	            1.680722	           -0.113054	          -26.925139	          822.252771	           73.384375	           -0.137160	            0.006025	           -0.707963	           -0.015383	            0.469763	            0.041925
            3.755000	           -7.586911	          821.904984	          -56.025580	           -0.139410	            0.006232	           -0.403375	           -0.013181	            1.427878	           -0.097332	          -26.762625	          829.248025	           74.253970	           -0.137238	            0.006025	           -0.708005	           -0.016169	            0.501007	            0.044862
            3.755500	           -8.093669	          828.036218	          -56.548319	           -0.139449	            0.006231	           -0.403186	           -0.008963	            0.916961	           -0.062621	          -26.084017	          836.060391	           75.310400	           -0.137315	            0.006025	           -0.708131	           -0.015966	            0.511768	            0.046099
            3.756000	           -8.187660	          833.806864	          -57.027768	           -0.139651	            0.006231	           -0.403289	           -0.006702	            0.682479	           -0.046678	          -25.730115	          841.951478	           76.175972	           -0.137241	            0.006025	           -0.708028	           -0.015733	            0.514824	            0.046579
            3.756500	           -8.465395	          838.496925	          -57.740683	           -0.139646	            0.006232	           -0.403373	           -0.007455	            0.738371	           -0.050846	          -25.051422	          848.763175	           77.420116	           -0.137563	            0.006024	           -0.708218	           -0.016017	            0.542661	            0.049499
            3.757000	           -8.100436	          843.906282	          -58.039400	           -0.139462	            0.006232	           -0.403381	           -0.013068	            1.361408	           -0.093630	          -24.418497	          855.208307	           78.099827	           -0.137526	            0.006025	           -0.708305	           -0.014948	            0.523522	            0.047809
            3.757500	           -8.148422	          850.037136	          -58.425704	           -0.139626	            0.006231	           -0.403265	           -0.016266	            1.696810	           -0.116627	          -23.880978	          862.203364	           79.438543	           -0.137781	            0.006024	           -0.708193	           -0.017352	            0.626492	            0.057721
            3.758000	           -8.059155	          855.808015	          -58.951468	           -0.139674	            0.006232	           -0.403326	           -0.016863	            1.790748	           -0.123354	          -23.010318	          867.727360	           80.490295	           -0.137843	            0.006023	           -0.708147	           -0.017387	            0.655673	            0.060820
            3.758500	           -7.695739	          860.318961	          -59.941885	           -0.139584	            0.006232	           -0.403426	           -0.013119	            1.466558	           -0.102181	          -22.420836	          873.251012	           81.354453	           -0.137811	            0.006024	           -0.708209	           -0.015982	            0.622459	            0.057990
